<svg xmlns="http://www.w3.org/2000/svg" viewBox="0 0 554 271"><defs><style>.cls-1{fill:#fbd039;}.cls-2{fill:#014991;}</style></defs><g id="Layer_2" data-name="Layer 2"><g id="Layer_1-2" data-name="Layer 1"><path class="cls-1" d="M254,0h35a10.65,10.65,0,0,0,2.6.84c6.13.37,12.27.77,18.42.92a316,316,0,0,1,36.22,3.08c10.51,1.47,21.1,2.5,31.51,4.48,24,4.56,47.6,10.79,70.38,19.82C473,39,496.65,51,517.22,68.37c10,8.45,18.59,18.1,25,29.56,10.49,18.65,13.09,38.24,6.41,58.69-5.23,16-14.86,29.31-26.95,40.82-13.6,13-29.21,23.08-45.91,31.58-18.87,9.61-38.66,16.75-59,22.64-27.49,8-55.58,12.76-83.93,16-13.19,1.53-26.55,1.64-39.84,2.44A15,15,0,0,0,290,271H268c-.5-.29-1-.84-1.5-.83A372.31,372.31,0,0,1,218.26,267c-10.5-1.36-21-2.6-31.5-4.22A451,451,0,0,1,127.13,249c-26.4-7.86-51.61-18.4-74.71-33.63-15.44-10.19-29-22.27-39.19-37.89-7.36-11.35-12-23.68-12.39-37.38A6.49,6.49,0,0,0,0,138v-6c.29-.51.81-1,.84-1.52.59-12.78,4.91-24.31,11.53-35.1C20.5,82.14,31.44,71.47,43.71,62.21,65.36,45.88,89.4,34,114.92,24.94a409.57,409.57,0,0,1,47.82-13.61,457.52,457.52,0,0,1,51.5-8.06C226.78,1.94,239.42,1.65,252,.85A6.87,6.87,0,0,0,254,0ZM443.58,86.17c-.71,19.56-1.43,39-2.11,58.36-.4,11.46-.73,22.93-1.08,34.39a2.38,2.38,0,0,0,.31.93,1.31,1.31,0,0,0,.33.38c.11.11.25.19.19.14h19.57c.81-16.19,1.61-32.09,2.44-48.62L475,172.05h14c3.57-13.12,7.14-26.2,10.8-39.64,1,16.2,1.91,32.07,2.86,47.88,7.44.8,19.67.52,23.06-.52q-3.47-45.33-7-90.7a10.46,10.46,0,0,0-1-2.72H494.24c-4,13.88-7.85,27.53-12,42.13-5.08-14.49-8.37-28.65-12.9-42.31ZM161.34,134.06c-.39-4.12-1-8.24-1.12-12.38a47.4,47.4,0,0,0-3.37-15.51c-2.18-5.62-5-11-10.08-14.56-10.71-7.58-22.35-8-34.09-3.32-9.91,3.94-14.8,12.45-17.58,22.3-2.67,9.43-2.21,19.11-2.29,28.77a63.38,63.38,0,0,0,3.35,21.1c5.36,15.8,17.31,23.3,32.19,22.22,14.1-1,23.71-8.84,28.58-22.16A80.2,80.2,0,0,0,161.34,134.06Zm109-47.85v5.31c0,18-.05,36,0,54a117.6,117.6,0,0,0,.77,13.92c1.52,12.33,7.57,19.76,21,22.49a43.6,43.6,0,0,0,15.33.17c14.39-2.13,23.23-11.71,23.35-27,.16-21.67,0-43.33,0-65,0-1.27-.19-2.55-.31-4.08-3.95,0-7.6,0-11.25,0s-7.17.09-10.95.14v5.58q0,28,0,56a52.26,52.26,0,0,1-.39,7c-.42,3.08-1.58,5.8-5,7.29h-5a8.23,8.23,0,0,1-4.85-7.74c-.09-3.16-.4-6.32-.41-9.48q-.06-27.24,0-54.5V86.21ZM72.24,142.05c7.83-3.83,11.88-9.83,13.5-17.58a44.14,44.14,0,0,0-1-22.13c-2.3-7.55-7.25-12.63-15.14-14.3a49.36,49.36,0,0,0-9.37-1.13c-8.83-.16-17.66-.08-26.49-.07-1.09,0-2.18.15-3.36.23v93c4.9.85,17.41.74,21.45-.23V148.24l.59-.05c4.65,10.79,9.29,21.57,14,32.55,7.88-.26,15.59.07,23.89-.24Zm291.43,38.4c0-6-.06-11.48,0-16.95s-.37-10.83.24-15.69c5.29-.36,10-.21,14.51-1.07,9.92-1.9,16.87-7.53,19.59-17.58a49,49,0,0,0-.21-26.11c-2.12-7.79-7.1-13.13-14.93-15.36a42,42,0,0,0-10.26-1.62c-9-.22-18-.08-27-.06-1.27,0-2.54.2-3.69.3,0,31.34,0,62.31,0,93.28a.88.88,0,0,0,.18.46,3.29,3.29,0,0,0,.52.4ZM263,159.81H242.42V86c-4,0-7.64,0-11.3,0s-7.18.09-10.66.14v94.12c8.29.85,39,.55,42.55-.42ZM191,160V86.3H169.38v94h41.49V160Zm237.76,20.4V86.31H407.26c-.88,11.72-.5,90.19.49,94.11Z"/><path class="cls-2" d="M290,271a15,15,0,0,1,3.06-.85c13.29-.8,26.65-.91,39.84-2.44,28.35-3.29,56.44-8.07,83.93-16,20.32-5.89,40.11-13,59-22.64,16.7-8.5,32.31-18.62,45.91-31.58,12.09-11.51,21.72-24.81,26.95-40.82,6.68-20.45,4.08-40-6.41-58.69-6.45-11.46-15.06-21.11-25-29.56C496.65,51,473,39,448.13,29.14c-22.78-9-46.36-15.26-70.38-19.82-10.41-2-21-3-31.51-4.48A316,316,0,0,0,310,1.76c-6.15-.15-12.29-.55-18.42-.92A10.65,10.65,0,0,1,289,0H554V271Z"/><path class="cls-2" d="M0,138a6.49,6.49,0,0,1,.84,2.05c.4,13.7,5,26,12.39,37.38,10.14,15.62,23.75,27.7,39.19,37.89,23.1,15.23,48.31,25.77,74.71,33.63a451,451,0,0,0,59.63,13.83c10.47,1.62,21,2.86,31.5,4.22a372.31,372.31,0,0,0,48.24,3.17c.5,0,1,.54,1.5.83H0Z"/><path class="cls-2" d="M254,0a6.87,6.87,0,0,1-2,.85c-12.59.8-25.23,1.09-37.77,2.42a457.52,457.52,0,0,0-51.5,8.06,409.57,409.57,0,0,0-47.82,13.61C89.4,34,65.36,45.88,43.71,62.21,31.44,71.47,20.5,82.14,12.37,95.38,5.75,106.17,1.43,117.7.84,130.48c0,.52-.55,1-.84,1.52V0Z"/><path class="cls-2" d="M443.58,86.17h25.75c4.53,13.66,7.82,27.82,12.9,42.31,4.16-14.6,8-28.25,12-42.13h23.53a10.46,10.46,0,0,1,1,2.72q3.53,45.36,7,90.7c-3.39,1-15.62,1.32-23.06.52-.95-15.81-1.9-31.68-2.86-47.88-3.66,13.44-7.23,26.52-10.8,39.64H475l-11.81-40.3c-.83,16.53-1.63,32.43-2.44,48.62H441.22c.06,0-.08,0-.19-.14a1.31,1.31,0,0,1-.33-.38,2.38,2.38,0,0,1-.31-.93c.35-11.46.68-22.93,1.08-34.39C442.15,125.13,442.87,105.73,443.58,86.17Z"/><path class="cls-2" d="M161.34,134.06a80.2,80.2,0,0,1-4.41,26.46c-4.87,13.32-14.48,21.14-28.58,22.16-14.88,1.08-26.83-6.42-32.19-22.22a63.38,63.38,0,0,1-3.35-21.1c.08-9.66-.38-19.34,2.29-28.77,2.78-9.85,7.67-18.36,17.58-22.3,11.74-4.67,23.38-4.26,34.09,3.32,5.1,3.6,7.9,8.94,10.08,14.56a47.4,47.4,0,0,1,3.37,15.51C160.36,125.82,161,129.94,161.34,134.06Zm-23.65.2-.67,0c0-3.49.18-7,0-10.47-.29-4.65-1-9.23-3.18-13.47-1.49-2.91-3.68-4.84-7-4.86a7.6,7.6,0,0,0-7.52,4.77,27.2,27.2,0,0,0-2.33,7c-.68,5.59-1,11.24-1.33,16.87a63.67,63.67,0,0,0,1.63,19.22,16.09,16.09,0,0,0,3.46,6.49c3.77,4.29,9.71,3.65,12.46-1.32a24.46,24.46,0,0,0,2.81-7.91C136.85,145.18,137.16,139.7,137.69,134.26Z"/><path class="cls-2" d="M270.33,86.21h22.34v4.06q0,27.26,0,54.5c0,3.16.32,6.32.41,9.48A8.23,8.23,0,0,0,298,162h5c3.43-1.49,4.59-4.21,5-7.29a52.26,52.26,0,0,0,.39-7q0-28,0-56V86.15c3.78-.05,7.36-.12,10.95-.14s7.3,0,11.25,0c.12,1.53.31,2.81.31,4.08,0,21.67.14,43.33,0,65-.12,15.31-9,24.89-23.35,27a43.6,43.6,0,0,1-15.33-.17c-13.44-2.73-19.49-10.16-21-22.49a117.6,117.6,0,0,1-.77-13.92c-.08-18,0-36,0-54Z"/><path class="cls-2" d="M72.24,142.05,90.36,180.5c-8.3.31-16,0-23.89.24-4.72-11-9.36-21.76-14-32.55l-.59.05v31.61c-4,1-16.55,1.08-21.45.23v-93c1.18-.08,2.27-.23,3.36-.23,8.83,0,17.66-.09,26.49.07A49.36,49.36,0,0,1,69.64,88c7.89,1.67,12.84,6.75,15.14,14.3a44.14,44.14,0,0,1,1,22.13C84.12,132.22,80.07,138.22,72.24,142.05ZM52.13,128.7c1.78-.19,3.24-.3,4.69-.52,4.29-.64,6.47-2.74,7.11-7.07a47.38,47.38,0,0,0,.2-5.47c.24-7.88-2.6-11.73-11.5-10.51-.27,0-.5.39-.5.39Z"/><path class="cls-2" d="M363.67,180.45h-21a3.29,3.29,0,0,1-.52-.4.88.88,0,0,1-.18-.46c0-31,0-61.94,0-93.28,1.15-.1,2.42-.29,3.69-.3,9,0,18-.16,27,.06a42,42,0,0,1,10.26,1.62c7.83,2.23,12.81,7.57,14.93,15.36a49,49,0,0,1,.21,26.11c-2.72,10.05-9.67,15.68-19.59,17.58-4.51.86-9.22.71-14.51,1.07-.61,4.86-.16,10.3-.24,15.69S363.67,174.43,363.67,180.45Zm.31-76.29V128c1.45,0,2.59.08,3.72,0,5.64-.51,8.05-2.79,8.54-8.37a44.13,44.13,0,0,0,0-7.45c-.42-5-2.95-7.44-7.88-7.93A42.91,42.91,0,0,0,364,104.16Z"/><path class="cls-2" d="M263,159.81v20c-3.57,1-34.26,1.27-42.55.42V86.15c3.48-.05,7.07-.12,10.66-.14s7.31,0,11.3,0v73.81Z"/><path class="cls-2" d="M191,160h19.91v20.31H169.38v-94H191Z"/><path class="cls-2" d="M428.72,180.42h-21c-1-3.92-1.37-82.39-.49-94.11h21.46Z"/><path class="cls-1" d="M137.69,134.26c-.53,5.44-.84,10.92-1.68,16.32a24.46,24.46,0,0,1-2.81,7.91c-2.75,5-8.69,5.61-12.46,1.32a16.09,16.09,0,0,1-3.46-6.49,63.67,63.67,0,0,1-1.63-19.22c.36-5.63.65-11.28,1.33-16.87a27.2,27.2,0,0,1,2.33-7,7.6,7.6,0,0,1,7.52-4.77c3.29,0,5.48,2,7,4.86,2.17,4.24,2.89,8.82,3.18,13.47.22,3.48,0,7,0,10.47Z"/><path class="cls-1" d="M52.13,128.7V105.52s.23-.35.5-.39c8.9-1.22,11.74,2.63,11.5,10.51a47.38,47.38,0,0,1-.2,5.47c-.64,4.33-2.82,6.43-7.11,7.07C55.37,128.4,53.91,128.51,52.13,128.7Z"/><path class="cls-1" d="M364,104.16a42.91,42.91,0,0,1,4.4,0c4.93.49,7.46,3,7.88,7.93a44.13,44.13,0,0,1,0,7.45c-.49,5.58-2.9,7.86-8.54,8.37-1.13.1-2.27,0-3.72,0Z"/></g></g></svg>